<svg width="243" height="72" viewBox="0 0 243 72" fill="none" xmlns="http://www.w3.org/2000/svg">
<g filter="url(#filter0_d_4302_3656)">
<path d="M38.08 40.86H33.36L32.66 43H28L33.18 28.84H38.3L43.46 43H38.78L38.08 40.86ZM37 37.52L35.72 33.58L34.44 37.52H37ZM43.8688 37.36C43.8688 36.1733 44.0688 35.1467 44.4688 34.28C44.8821 33.4 45.4421 32.7333 46.1488 32.28C46.8554 31.8133 47.6488 31.58 48.5288 31.58C49.2621 31.58 49.8888 31.7333 50.4088 32.04C50.9421 32.3333 51.3488 32.74 51.6288 33.26V28.2H56.0688V43H51.6288V41.46C51.3488 41.98 50.9421 42.3933 50.4088 42.7C49.8888 42.9933 49.2621 43.14 48.5288 43.14C47.6488 43.14 46.8554 42.9133 46.1488 42.46C45.4421 41.9933 44.8821 41.3267 44.4688 40.46C44.0688 39.58 43.8688 38.5467 43.8688 37.36ZM51.6488 37.36C51.6488 36.76 51.4954 36.2933 51.1888 35.96C50.8821 35.6267 50.4888 35.46 50.0088 35.46C49.5288 35.46 49.1354 35.6267 48.8288 35.96C48.5221 36.2933 48.3688 36.76 48.3688 37.36C48.3688 37.96 48.5221 38.4267 48.8288 38.76C49.1354 39.0933 49.5288 39.26 50.0088 39.26C50.4888 39.26 50.8821 39.0933 51.1888 38.76C51.4954 38.4267 51.6488 37.96 51.6488 37.36ZM62.5025 33.8C62.9558 33.1467 63.5092 32.6267 64.1625 32.24C64.8158 31.84 65.4958 31.64 66.2025 31.64V36.38H64.9425C64.1025 36.38 63.4825 36.5267 63.0825 36.82C62.6958 37.1133 62.5025 37.6333 62.5025 38.38V43H58.0625V31.72H62.5025V33.8ZM69.6384 30.82C68.8651 30.82 68.2451 30.6133 67.7784 30.2C67.3118 29.7867 67.0784 29.2667 67.0784 28.64C67.0784 28 67.3118 27.4733 67.7784 27.06C68.2451 26.6333 68.8651 26.42 69.6384 26.42C70.3984 26.42 71.0118 26.6333 71.4784 27.06C71.9451 27.4733 72.1784 28 72.1784 28.64C72.1784 29.2667 71.9451 29.7867 71.4784 30.2C71.0118 30.6133 70.3984 30.82 69.6384 30.82ZM71.8384 31.72V43H67.3984V31.72H71.8384ZM73.2438 37.36C73.2438 36.1733 73.4438 35.1467 73.8438 34.28C74.2571 33.4 74.8171 32.7333 75.5238 32.28C76.2304 31.8133 77.0238 31.58 77.9038 31.58C78.6371 31.58 79.2704 31.7333 79.8038 32.04C80.3371 32.3333 80.7438 32.74 81.0238 33.26V31.72H85.4438V43H81.0238V41.46C80.7438 41.98 80.3371 42.3933 79.8038 42.7C79.2704 42.9933 78.6371 43.14 77.9038 43.14C77.0238 43.14 76.2304 42.9133 75.5238 42.46C74.8171 41.9933 74.2571 41.3267 73.8438 40.46C73.4438 39.58 73.2438 38.5467 73.2438 37.36ZM81.0238 37.36C81.0238 36.76 80.8704 36.2933 80.5638 35.96C80.2571 35.6267 79.8638 35.46 79.3838 35.46C78.9038 35.46 78.5104 35.6267 78.2038 35.96C77.8971 36.2933 77.7438 36.76 77.7438 37.36C77.7438 37.96 77.8971 38.4267 78.2038 38.76C78.5104 39.0933 78.9038 39.26 79.3838 39.26C79.8638 39.26 80.2571 39.0933 80.5638 38.76C80.8704 38.4267 81.0238 37.96 81.0238 37.36ZM95.3375 31.64C96.6308 31.64 97.6375 32.0733 98.3575 32.94C99.0908 33.8067 99.4575 34.98 99.4575 36.46V43H95.0375V37.02C95.0375 36.4867 94.8908 36.0667 94.5975 35.76C94.3175 35.44 93.9375 35.28 93.4575 35.28C92.9642 35.28 92.5775 35.44 92.2975 35.76C92.0175 36.0667 91.8775 36.4867 91.8775 37.02V43H87.4375V31.72H91.8775V33.44C92.2242 32.9067 92.6842 32.4733 93.2575 32.14C93.8442 31.8067 94.5375 31.64 95.3375 31.64ZM109.701 39.46H115.381V43H104.781V39.66L110.381 32.36H104.781V28.84H115.381V32.18L109.701 39.46ZM116.779 37.36C116.779 36.1733 116.979 35.1467 117.379 34.28C117.792 33.4 118.352 32.7333 119.059 32.28C119.766 31.8133 120.559 31.58 121.439 31.58C122.172 31.58 122.806 31.7333 123.339 32.04C123.872 32.3333 124.279 32.74 124.559 33.26V31.72H128.979V43H124.559V41.46C124.279 41.98 123.872 42.3933 123.339 42.7C122.806 42.9933 122.172 43.14 121.439 43.14C120.559 43.14 119.766 42.9133 119.059 42.46C118.352 41.9933 117.792 41.3267 117.379 40.46C116.979 39.58 116.779 38.5467 116.779 37.36ZM124.559 37.36C124.559 36.76 124.406 36.2933 124.099 35.96C123.792 35.6267 123.399 35.46 122.919 35.46C122.439 35.46 122.046 35.6267 121.739 35.96C121.432 36.2933 121.279 36.76 121.279 37.36C121.279 37.96 121.432 38.4267 121.739 38.76C122.046 39.0933 122.439 39.26 122.919 39.26C123.399 39.26 123.792 39.0933 124.099 38.76C124.406 38.4267 124.559 37.96 124.559 37.36ZM146.033 31.64C147.473 31.64 148.586 32.0733 149.373 32.94C150.173 33.8067 150.573 34.98 150.573 36.46V43H146.153V37.02C146.153 36.54 146.006 36.1667 145.713 35.9C145.433 35.62 145.053 35.48 144.573 35.48C144.079 35.48 143.693 35.62 143.413 35.9C143.133 36.1667 142.993 36.54 142.993 37.02V43H138.573V37.02C138.573 36.54 138.426 36.1667 138.133 35.9C137.853 35.62 137.473 35.48 136.993 35.48C136.499 35.48 136.113 35.62 135.833 35.9C135.553 36.1667 135.413 36.54 135.413 37.02V43H130.973V31.72H135.413V33.24C135.733 32.76 136.166 32.3733 136.713 32.08C137.273 31.7867 137.926 31.64 138.673 31.64C139.486 31.64 140.206 31.82 140.833 32.18C141.459 32.5267 141.959 33.02 142.333 33.66C142.746 33.0733 143.273 32.5933 143.913 32.22C144.553 31.8333 145.259 31.64 146.033 31.64ZM156.936 33.26C157.216 32.74 157.616 32.3333 158.136 32.04C158.669 31.7333 159.303 31.58 160.036 31.58C160.916 31.58 161.709 31.8133 162.416 32.28C163.123 32.7333 163.676 33.4 164.076 34.28C164.489 35.1467 164.696 36.1733 164.696 37.36C164.696 38.5467 164.489 39.58 164.076 40.46C163.676 41.3267 163.123 41.9933 162.416 42.46C161.709 42.9133 160.916 43.14 160.036 43.14C159.303 43.14 158.669 42.9933 158.136 42.7C157.616 42.3933 157.216 41.98 156.936 41.46V43H152.496V28.2H156.936V33.26ZM160.196 37.36C160.196 36.76 160.043 36.2933 159.736 35.96C159.429 35.6267 159.036 35.46 158.556 35.46C158.076 35.46 157.683 35.6267 157.376 35.96C157.069 36.2933 156.916 36.76 156.916 37.36C156.916 37.96 157.069 38.4267 157.376 38.76C157.683 39.0933 158.076 39.26 158.556 39.26C159.036 39.26 159.429 39.0933 159.736 38.76C160.043 38.4267 160.196 37.96 160.196 37.36ZM170.53 33.8C170.983 33.1467 171.537 32.6267 172.19 32.24C172.843 31.84 173.523 31.64 174.23 31.64V36.38H172.97C172.13 36.38 171.51 36.5267 171.11 36.82C170.723 37.1133 170.53 37.6333 170.53 38.38V43H166.09V31.72H170.53V33.8ZM174.826 37.36C174.826 36.1733 175.026 35.1467 175.426 34.28C175.839 33.4 176.399 32.7333 177.106 32.28C177.812 31.8133 178.606 31.58 179.486 31.58C180.219 31.58 180.852 31.7333 181.386 32.04C181.919 32.3333 182.326 32.74 182.606 33.26V31.72H187.026V43H182.606V41.46C182.326 41.98 181.919 42.3933 181.386 42.7C180.852 42.9933 180.219 43.14 179.486 43.14C178.606 43.14 177.812 42.9133 177.106 42.46C176.399 41.9933 175.839 41.3267 175.426 40.46C175.026 39.58 174.826 38.5467 174.826 37.36ZM182.606 37.36C182.606 36.76 182.452 36.2933 182.146 35.96C181.839 35.6267 181.446 35.46 180.966 35.46C180.486 35.46 180.092 35.6267 179.786 35.96C179.479 36.2933 179.326 36.76 179.326 37.36C179.326 37.96 179.479 38.4267 179.786 38.76C180.092 39.0933 180.486 39.26 180.966 39.26C181.446 39.26 181.839 39.0933 182.146 38.76C182.452 38.4267 182.606 37.96 182.606 37.36ZM196.92 31.64C198.213 31.64 199.22 32.0733 199.94 32.94C200.673 33.8067 201.04 34.98 201.04 36.46V43H196.62V37.02C196.62 36.4867 196.473 36.0667 196.18 35.76C195.9 35.44 195.52 35.28 195.04 35.28C194.546 35.28 194.16 35.44 193.88 35.76C193.6 36.0667 193.46 36.4867 193.46 37.02V43H189.02V31.72H193.46V33.44C193.806 32.9067 194.266 32.4733 194.84 32.14C195.426 31.8067 196.12 31.64 196.92 31.64ZM208.325 43.14C207.192 43.14 206.172 42.9067 205.265 42.44C204.358 41.9733 203.645 41.3067 203.125 40.44C202.618 39.56 202.365 38.5333 202.365 37.36C202.365 36.1867 202.618 35.1667 203.125 34.3C203.645 33.42 204.358 32.7467 205.265 32.28C206.172 31.8133 207.192 31.58 208.325 31.58C209.458 31.58 210.478 31.8133 211.385 32.28C212.292 32.7467 212.998 33.42 213.505 34.3C214.025 35.1667 214.285 36.1867 214.285 37.36C214.285 38.5333 214.025 39.56 213.505 40.44C212.998 41.3067 212.292 41.9733 211.385 42.44C210.478 42.9067 209.458 43.14 208.325 43.14ZM208.325 39.3C208.738 39.3 209.085 39.14 209.365 38.82C209.645 38.4867 209.785 38 209.785 37.36C209.785 36.72 209.645 36.24 209.365 35.92C209.085 35.5867 208.738 35.42 208.325 35.42C207.912 35.42 207.565 35.5867 207.285 35.92C207.005 36.24 206.865 36.72 206.865 37.36C206.865 38 206.998 38.4867 207.265 38.82C207.545 39.14 207.898 39.3 208.325 39.3Z" fill="white"/>
</g>
<g opacity="0.1">
<path d="M94.4092 28.3292C94.6048 28.1825 94.7841 28.0521 94.9634 27.9217C95.7947 27.3349 96.5445 26.6829 97.1803 25.8678C97.4411 25.5255 97.7345 25.2158 98.0442 24.9061C98.8103 24.1237 99.5112 23.3087 100.131 22.3958C100.424 21.9557 100.685 21.8742 101.158 22.0372C101.647 22.2165 102.038 22.5262 102.233 23.0316C102.38 23.4065 102.331 23.6673 102.021 23.9118C100.522 25.1506 99.0711 26.4547 97.2781 27.286C96.6423 27.5794 96.0392 27.9706 95.4361 28.3292C95.2568 28.427 95.0938 28.5411 94.9145 28.6226C94.6863 28.7367 94.5396 28.6552 94.4092 28.3292Z" fill="white"/>
<path d="M86.8448 27.1884C85.8016 27.1721 85.0681 26.0311 85.5245 25.1509C85.8179 24.5803 86.4699 24.3358 87.0731 24.5477C87.5132 24.7107 87.8718 24.9878 88.1 25.3954C88.3608 25.8681 88.2793 26.2593 87.8066 26.5527C87.6436 26.6505 87.5621 26.7809 87.448 26.9113C87.2361 27.1395 87.122 27.1884 86.8448 27.1884Z" fill="white"/>
<path d="M43.1765 40.4243C42.6875 40.408 42.2637 40.5221 41.8562 40.5873C37.8462 41.2556 33.8363 41.9728 29.859 42.8041C28.9625 42.9834 28.0823 43.2117 27.1857 43.3584C26.7782 43.4236 26.5011 43.6355 26.2403 43.9126C24.5777 45.673 22.8987 47.4335 21.2361 49.2102C18.8888 51.6879 16.5415 54.1656 14.0802 56.5291C13.9498 56.6595 13.8193 56.7736 13.6889 56.8877C13.5585 57.0182 13.3955 57.0997 13.2162 57.0345C12.988 56.953 12.8413 56.7736 12.8087 56.5291C12.7924 56.4802 12.7924 56.4313 12.8087 56.3824C12.9065 55.8119 13.0043 55.2414 13.1021 54.6709C13.1021 54.622 13.1673 54.6057 13.1999 54.5731C13.5422 54.5079 13.6889 54.785 13.9009 54.948C13.9335 54.9317 13.9498 54.9317 13.9824 54.9154C13.9987 54.8991 14.0313 54.8991 14.0476 54.8828C17.1609 51.4271 20.2743 47.9551 23.3877 44.4994C23.4203 44.4668 23.4366 44.4179 23.4529 44.369C23.4692 44.3527 23.4529 44.3201 23.4529 44.2549C23.2084 44.3038 22.9639 44.3201 22.7357 44.3853C15.9221 45.999 9.15741 47.8084 2.47422 49.8948C2.32752 49.9437 2.18081 49.9764 2.03411 50.0253C1.30059 50.3024 0.404063 49.797 0.0780534 48.9983C-0.117552 48.5256 0.0617535 48.1507 0.534467 47.9714C0.746373 47.8899 0.97458 47.8247 1.18649 47.7595C8.6847 45.5589 16.2644 43.6681 23.9093 42.0869C24.3821 41.9891 24.8548 41.875 25.3275 41.8098C25.7513 41.7609 26.061 41.5653 26.3544 41.2393C27.7236 39.7071 29.1092 38.2074 30.4947 36.6915C37.3572 29.2258 44.236 21.7602 51.0985 14.2946C54.8802 10.1706 58.6619 6.06289 62.4436 1.93887C62.9001 1.43355 63.3402 0.911938 63.7966 0.390323C64.1715 -0.0334892 64.4812 -0.0986921 65.0028 0.129514C65.3451 0.276219 65.6222 0.471824 65.8341 0.781533C66.1113 1.18904 66.1765 1.61286 65.8831 2.05297C65.3125 2.8843 64.7746 3.74822 64.2041 4.57955C61.596 8.29605 59.2162 12.143 56.9993 16.0877C53.1361 22.9665 49.9412 30.1387 47.3168 37.5717C47.2353 37.7836 47.1864 37.9955 47.1049 38.2726C47.2842 38.2889 47.4309 38.3215 47.5613 38.3052C48.7513 38.1911 49.9249 38.0607 51.1148 37.9466C52.0439 37.8488 52.9731 37.751 53.9022 37.6858C54.2282 37.6695 54.4727 37.5554 54.7009 37.3272C55.3855 36.6426 56.1191 36.0232 56.9504 35.5178C57.4394 35.2244 57.9773 34.9636 58.4989 34.7191C59.0368 34.4746 59.6237 34.4257 60.2105 34.4746C60.9277 34.5235 61.5308 34.8169 61.9709 35.3874C62.2643 35.7623 62.5252 36.1699 62.8349 36.5937C62.949 36.3818 63.0794 36.2025 63.1772 36.0069C65.2799 31.8828 67.3175 27.7262 69.2735 23.537C69.7626 22.4775 70.2842 21.4505 70.8221 20.4073C70.9525 20.1465 71.1644 19.902 71.36 19.6738C71.523 19.4782 71.7512 19.4619 71.9957 19.5271C72.5499 19.6575 72.9086 20.0976 72.9412 20.6681C72.9738 21.1408 72.8108 21.5646 72.6477 21.9884C71.9305 23.9445 71.0992 25.8354 70.2516 27.7262C67.4642 33.9693 64.3019 40.0168 60.944 45.9664C60.6017 46.5859 60.2594 47.2053 59.9334 47.841C59.6563 48.3789 59.4607 48.9494 59.3303 49.5525C59.2162 50.1068 59.2651 50.661 59.4444 51.1989C59.5422 51.5086 59.6726 51.8183 60.0149 52.0302C60.5528 51.7205 61.0092 51.313 61.4004 50.824C62.2317 49.7807 63.0794 48.7375 63.9107 47.678C66.7796 44.0104 69.4529 40.1961 71.9631 36.2677C72.1587 35.9742 72.3706 35.6808 72.338 35.2896C72.338 35.2244 72.3706 35.1429 72.3869 35.0777C72.8922 33.5781 73.6584 32.2088 74.6527 30.9863C74.8972 30.6766 75.2232 30.5625 75.6796 30.7581C75.8915 30.8396 76.0708 30.9863 76.2339 31.133C76.7066 31.5894 76.7392 32.0132 76.3479 32.5348C75.7937 33.2684 75.3373 34.0508 74.9624 34.8821C74.8809 35.0614 74.832 35.257 74.7505 35.4852C75.1417 35.6645 75.5003 35.8275 75.8589 36.0069C76.2338 36.2025 76.6414 36.3818 76.9837 36.6263C77.8802 37.2294 78.1573 37.9303 77.8802 38.9898C77.6683 39.8049 77.4401 40.6036 77.2282 41.4023C77.1793 41.5653 77.1956 41.7283 77.163 41.9728C77.3586 41.875 77.5053 41.8261 77.6194 41.7446C77.9943 41.4349 78.3692 41.1415 78.7115 40.8155C80.5209 39.0876 82.3302 37.3598 84.1559 35.6319C84.5634 35.2407 84.9709 34.8821 85.3784 34.4909C85.5251 34.3605 85.6718 34.1975 85.7533 34.0182C85.9652 33.4803 86.226 32.9587 86.3075 32.3718C86.3727 31.948 86.6499 31.7687 87.0574 31.8502C87.7746 31.9806 88.2962 32.7305 88.2147 33.4966C88.1821 33.8389 88.0843 34.1975 88.0028 34.5398C87.7746 35.5015 87.3997 36.4144 86.9596 37.3109C86.4216 38.403 85.8674 39.4788 85.3295 40.571C84.6123 42.0217 83.9766 43.5051 83.6017 45.1025C83.5039 45.5426 83.3409 45.9664 83.3735 46.4392C83.6506 46.4718 83.8462 46.3576 84.0255 46.2272C84.3515 45.9827 84.6938 45.7545 84.9709 45.4611C86.6336 43.7333 88.2962 41.9891 89.9425 40.245C90.1382 40.0331 90.2849 39.7397 90.4153 39.4788C91.2303 37.7347 92.355 36.2188 93.8058 34.9473C94.3437 34.4746 94.8979 34.0508 95.5336 33.7085C96.0063 33.4477 96.4953 33.2684 97.0333 33.2032C97.7505 33.1217 98.3862 33.2684 98.9078 33.79C99.2338 34.1323 99.3968 34.4909 99.1197 34.9473C98.9893 35.1592 98.9241 35.42 98.8263 35.6482C98.6959 35.9253 98.4514 35.9742 98.2069 35.8112C97.995 35.6645 97.832 35.4689 97.8157 35.1918C97.8157 35.0777 97.8157 34.9473 97.8157 34.8332C97.4897 34.7843 97.2941 34.9636 97.0822 35.094C95.7292 35.9253 94.5719 36.9686 93.6428 38.2563C92.8603 39.3321 92.2735 40.4895 91.7845 41.7935C91.9638 41.7935 92.1105 41.8424 92.2246 41.7935C92.4854 41.6957 92.7299 41.5653 92.9581 41.4023C93.3819 41.0926 93.8058 40.7666 94.2133 40.4243C95.8922 38.9572 97.5223 37.4413 99.0871 35.8601C99.2338 35.7134 99.3642 35.5667 99.5272 35.4363C99.788 35.2081 100.081 35.1918 100.359 35.3874C100.668 35.5993 100.831 35.909 100.848 36.284C100.864 36.9849 100.896 37.7021 100.913 38.403C100.929 38.6801 100.896 38.9572 101.076 39.2506C101.32 39.1528 101.548 39.0713 101.777 38.9572C103.994 37.914 105.999 36.5774 107.808 34.9147C108.607 34.1649 109.324 33.3662 109.992 32.4859C110.123 32.3066 110.269 32.111 110.416 31.948C110.66 31.6546 110.872 31.622 111.215 31.8176C111.704 32.0947 111.834 32.437 111.622 32.9587C111.166 34.116 110.709 35.257 110.253 36.4144C110.171 36.6263 110.106 36.8382 110.041 37.0338C110.204 37.1805 110.302 37.0664 110.416 37.0175C111.312 36.61 112.209 36.2188 113.122 35.8112C113.562 35.6156 113.969 35.6971 114.312 36.0231C114.507 36.2025 114.605 36.4307 114.54 36.7078C114.524 36.7893 114.491 36.8545 114.475 36.9197C114.312 37.7021 114.573 38.3052 115.257 38.7127C115.714 38.9898 116.235 39.1365 116.757 39.218C119.349 39.6255 121.891 39.5114 124.418 38.729C124.581 38.6801 124.76 38.6149 124.923 38.566C125.363 38.4519 125.804 38.6475 126.015 39.0387C126.211 39.4299 126.13 39.7233 125.706 39.8701C124.043 40.4243 122.332 40.7666 120.571 40.7992C119.251 40.8318 117.947 40.7666 116.659 40.4569C116.072 40.3102 115.485 40.1309 114.964 39.8212C114.198 39.381 113.611 38.7779 113.236 37.9629C113.187 37.8488 113.138 37.7347 113.073 37.6206C113.057 37.6043 113.04 37.588 112.975 37.5391C112.877 37.5717 112.731 37.588 112.6 37.6532C112.062 37.9303 111.508 38.1911 110.986 38.4845C110.4 38.8268 109.878 39.2832 109.422 39.8049C109.112 40.1798 108.867 40.571 108.753 41.06C108.59 41.7446 108.378 42.4292 108.215 43.1139C108.134 43.4236 107.971 43.5703 107.596 43.5214C107.107 43.4562 106.699 43.0976 106.634 42.5922C106.569 42.1032 106.618 41.6305 106.748 41.1578C106.83 40.8644 106.911 40.571 107.058 40.3102C107.726 38.9735 108.085 37.5228 108.607 36.1209C108.607 36.1046 108.59 36.0721 108.558 36.0069C108.444 36.0884 108.313 36.1536 108.215 36.2514C106.341 37.8162 104.32 39.1528 102.086 40.1635C101.695 40.3428 101.32 40.5547 100.945 40.7503C100.375 41.0437 99.7554 40.7829 99.5924 40.1472C99.5435 39.9353 99.5272 39.6907 99.5272 39.4625C99.5109 38.9898 99.5272 38.5008 99.5109 38.0281C99.5109 37.8651 99.4946 37.6858 99.4946 37.5228C99.2338 37.4413 99.136 37.6043 99.0056 37.7184C97.6853 38.8105 96.3486 39.9027 95.0446 41.0274C94.2622 41.712 93.4145 42.2988 92.5017 42.8204C92.029 43.0813 91.54 43.2443 90.9858 43.1465C90.1545 42.9998 89.8284 42.6411 89.7632 41.712C89.6328 41.8098 89.4861 41.8587 89.4046 41.9565C88.6385 42.7715 87.8887 43.5866 87.1226 44.3853C86.6336 44.9069 86.1445 45.4122 85.6555 45.9175C85.0361 46.5696 84.27 47.0097 83.455 47.3683C83.1126 47.515 82.7866 47.5802 82.428 47.4335C82.0857 47.2868 81.8575 47.0586 81.7434 46.6837C81.3848 45.4937 81.3848 44.2875 81.6945 43.0976C81.9879 41.9728 82.4443 40.897 82.9659 39.8538C83.2105 39.3647 83.455 38.8757 83.6017 38.3215C83.455 38.4519 83.3083 38.566 83.1778 38.6964C82.1346 39.7397 81.1077 40.7666 80.0645 41.8098C79.5428 42.3314 78.9886 42.8204 78.3529 43.1954C77.6846 43.5866 76.9837 43.8474 76.2012 43.8148C75.9404 43.7985 75.6959 43.7333 75.484 43.6029C75.0928 43.3584 74.832 43.0324 74.9298 42.5433C75.0602 41.7935 75.1743 41.0437 75.3373 40.3102C75.4677 39.6908 75.647 39.0876 75.7937 38.4682C75.8263 38.3052 75.8426 38.1259 75.8752 37.914C75.0602 37.4739 74.2126 37.1479 73.4302 36.773C73.1042 36.936 73.0064 37.2131 72.8597 37.4413C70.3494 41.1904 67.6924 44.8091 64.8561 48.3137C64.1715 49.1613 63.4869 49.9926 62.7697 50.824C62.2317 51.4597 61.7101 52.1117 61.2863 52.8289C60.8625 53.5461 60.6832 53.595 59.9497 53.2364C58.6456 52.617 57.8958 51.5575 57.5372 50.1883C57.2112 48.9494 57.3253 47.7269 57.7491 46.537C57.9936 45.8686 58.3196 45.2329 58.6456 44.6135C59.1999 43.5703 59.803 42.527 60.3735 41.5001C60.4713 41.3371 60.5854 41.1741 60.6017 40.8807C60.4061 41.0437 60.2757 41.1415 60.1616 41.2556C58.2707 43.0649 56.2984 44.7439 54.2608 46.3739C53.8696 46.6837 53.4621 47.0097 53.0383 47.2705C52.2396 47.7758 51.5386 47.7269 50.8214 47.0912C50.0227 46.3903 49.7782 45.4937 50.0064 44.4831C50.1042 44.0756 50.2998 43.6844 50.5117 43.3095C51.2289 42.0054 52.0113 40.734 52.9079 39.5277C52.9894 39.4136 53.0383 39.2832 53.1524 39.0713C52.8101 39.1039 52.5656 39.1039 52.3211 39.1365C50.6258 39.381 48.9143 39.6419 47.219 39.8375C46.73 39.9027 46.5181 40.0983 46.404 40.5547C45.7194 42.9019 44.9858 45.2492 44.3175 47.6128C43.1439 51.8509 42.2148 56.1542 41.4812 60.4901C41.1878 62.1854 40.9433 63.8807 40.6988 65.5922C40.4706 67.1407 40.2261 68.6893 40.0142 70.2378C39.9653 70.5638 39.949 70.8899 39.9001 71.2159C39.8186 71.7212 39.5252 71.9005 39.0362 71.7864C38.7265 71.7049 38.482 71.5582 38.2538 71.3463C37.9929 71.1018 37.9114 70.8084 37.9114 70.4497C37.944 69.7162 37.944 68.9827 37.9766 68.2492C38.2538 63.5709 38.9384 58.9416 39.8349 54.3449C40.6988 49.8949 41.8236 45.51 43.1439 41.1904C43.0787 40.9133 43.1113 40.6851 43.1765 40.4243ZM43.7633 38.7453C43.8774 38.4193 43.9589 38.1911 44.0404 37.9466C45.9965 32.111 48.3111 26.4222 51.0659 20.9289C52.207 18.6631 53.4295 16.4626 54.6194 14.2294C54.6846 14.099 54.8476 13.9686 54.7172 13.7567C46.2084 22.8035 37.7484 31.8013 29.2722 40.8155C29.2396 40.8481 29.2559 40.9133 29.2396 40.9785C29.3048 40.9948 29.37 41.0274 29.4352 41.0274C34.1623 40.1472 38.9221 39.3647 43.7633 38.7453ZM61.596 36.5285C60.6995 36.235 60.3735 36.2188 59.64 36.5774C59.0694 36.8545 58.5315 37.1968 58.0262 37.5554C57.2601 38.0933 56.6081 38.7616 55.9887 39.4788C54.3586 41.3697 53.1198 43.5051 51.8809 45.6567C51.7668 45.8523 51.7016 46.0805 51.6527 46.2924C51.6038 46.4554 51.7668 46.6184 51.9135 46.5532C52.1907 46.4228 52.4678 46.2924 52.696 46.1131C55.8583 43.6518 58.8086 40.9785 61.5308 38.0444C61.6612 37.8977 61.7916 37.7347 61.9057 37.6043C61.7916 37.2294 61.6938 36.8871 61.596 36.5285Z" fill="white"/>
<path d="M96.1962 59.3175C96.5086 59.2446 96.6856 59.2168 96.8522 59.1613C98.303 58.6893 99.7504 58.2068 101.201 57.7417C107.282 55.7945 113.45 54.1632 119.715 52.9275C122.437 52.3895 125.175 51.9279 127.91 51.4801C130.01 51.1365 132.117 50.8415 134.224 50.5638C135.644 50.3763 137.074 50.2444 138.5 50.0917C140.086 49.9251 141.673 49.7585 143.262 49.6023C144.505 49.4808 145.751 49.3663 146.994 49.2691C148.722 49.1337 150.454 49.0157 152.186 48.8977C153.064 48.8387 153.942 48.7832 154.817 48.745C158.052 48.5958 161.287 48.4222 164.525 48.391C166.261 48.3736 167.996 48.3215 169.728 48.3424C172.179 48.3736 174.629 48.4569 177.08 48.5298C178.19 48.5645 179.298 48.627 180.408 48.686C184.733 48.9151 189.023 49.4218 193.275 50.2549C195.615 50.713 197.926 51.2788 200.137 52.2021C200.436 52.327 200.738 52.4485 201.022 52.6012C202.116 53.1982 202.81 54.1111 203.153 55.3016C203.337 55.9437 203.237 56.5373 202.858 57.0857C202.609 57.4432 202.338 57.7833 202.046 58.0749C201.81 58.0333 201.758 57.8667 201.668 57.7417C201.484 57.4848 201.501 57.2245 201.675 56.9677C201.845 56.7178 202.025 56.4783 202.178 56.2214C202.317 55.9854 202.456 55.7355 202.539 55.4752C202.668 55.0864 202.556 54.7428 202.216 54.4964C202.05 54.3749 201.869 54.2673 201.689 54.1631C200.318 53.3614 198.829 52.872 197.305 52.4624C195.58 52.0007 193.82 51.7335 192.057 51.4905C190.543 51.2823 189.034 51.0671 187.52 50.8762C186.028 50.6887 184.535 50.5013 183.039 50.3729C180.78 50.1785 178.52 50.0154 176.257 49.88C174.896 49.7967 173.529 49.7932 172.165 49.755C169.017 49.6648 165.872 49.755 162.727 49.8245C159.468 49.8974 156.205 49.9911 152.946 50.1403C150.451 50.2549 147.958 50.4354 145.47 50.6401C142.867 50.8553 140.263 51.0983 137.667 51.3968C134.567 51.7543 131.471 52.1674 128.379 52.5839C122.346 53.3995 116.38 54.5762 110.493 56.1242C102.819 58.1443 95.2555 60.5115 87.9006 63.5139C87.4737 63.6874 87.0363 63.8402 86.6025 63.9998C86.54 64.0241 86.4706 64.0276 86.3803 64.0449C86.1547 63.8749 86.061 63.6145 85.9117 63.3334C86.0957 63.2154 86.2588 63.0939 86.4393 63.0002C87.6958 62.3581 88.9488 61.7159 90.2157 61.0912C96.4391 58.0298 102.673 54.9823 108.893 51.9105C113.27 49.7516 117.633 47.5649 121.996 45.3851C130.729 41.0256 139.385 36.5203 147.892 31.7339C153.359 28.6586 158.743 25.4549 163.949 21.9562C166.792 20.0472 169.6 18.0861 172.286 15.9619C173.612 14.9102 174.869 13.7821 176.011 12.5326C176.323 12.1924 176.608 11.8245 176.875 11.4497C177.142 11.0713 177.323 10.6479 177.406 10.155C176.934 9.83567 176.42 9.65865 175.872 9.55799C174.525 9.31155 173.161 9.24214 171.797 9.23866C169.527 9.23172 167.264 9.3185 165.004 9.51981C163.137 9.68642 161.27 9.82526 159.406 9.9988C157.24 10.1966 155.077 10.4223 152.915 10.6305C151.186 10.7936 149.461 10.9533 147.733 11.0991C145.681 11.2726 143.63 11.4635 141.575 11.585C139.243 11.7204 136.907 11.828 134.574 11.8662C132.957 11.8939 131.34 11.7343 129.753 11.3629C129.417 11.2831 129.087 11.172 128.774 11.0262C128.184 10.752 127.768 10.2973 127.508 9.70377C127.483 9.64824 127.497 9.57882 127.497 9.52328C127.657 9.42957 127.785 9.51981 127.907 9.55799C129.625 10.0995 131.392 10.2626 133.179 10.2834C135.633 10.3112 138.084 10.273 140.531 10.0925C142.398 9.95368 144.265 9.77319 146.129 9.61005C147.372 9.50246 148.618 9.39139 149.861 9.27684C151.658 9.11371 153.453 8.94363 155.251 8.7805C156.493 8.66943 157.74 8.5653 158.986 8.46117C160.461 8.33622 161.936 8.20085 163.411 8.08978C166.018 7.89194 168.628 7.72533 171.245 7.78781C172.658 7.82252 174.056 8.00648 175.452 8.2182C176.903 8.44035 177.708 9.38445 178.194 10.6756C178.305 10.9672 178.298 11.2726 178.17 11.5573C178.048 11.8315 177.916 12.1022 177.753 12.3556C177.239 13.1643 176.58 13.8446 175.879 14.4833C174.22 15.9966 172.46 17.3919 170.641 18.7074C166.757 21.5154 162.738 24.1152 158.656 26.6246C152.328 30.5156 145.834 34.108 139.285 37.6067C131.777 41.6157 124.189 45.4684 116.553 49.224C110.038 52.4311 103.513 55.614 96.9945 58.8108C96.7585 58.9218 96.4912 59.0051 96.1962 59.3175Z" fill="white"/>
<path d="M188.909 23.5706C189.443 23.942 189.537 24.1503 189.388 24.657C189.336 24.834 189.259 25.0041 189.19 25.1742C187.899 28.3432 186.604 31.5121 185.313 34.6777C185.212 34.9276 185.119 35.1844 185.098 35.4899C185.192 35.4135 185.296 35.3441 185.379 35.2573C186.056 34.5215 186.802 33.8689 187.593 33.2615C187.812 33.0949 188.052 32.9422 188.305 32.8381C188.843 32.6159 189.322 32.779 189.624 33.2719C189.909 33.7405 190.044 34.2611 189.919 34.8026C189.832 35.1809 189.704 35.5627 189.527 35.9064C188.437 37.9855 186.733 39.3738 184.591 40.2728C184.188 40.4429 183.879 40.3804 183.609 40.0472C183.373 39.7626 183.137 39.478 182.88 39.2107C182.571 38.8879 182.526 38.52 182.651 38.1174C182.755 37.7876 182.876 37.4614 182.981 37.1316C183.05 36.9164 183.112 36.6943 183.189 36.4305C183.033 36.4305 182.922 36.4166 182.817 36.434C181.38 36.67 179.947 36.9234 178.506 37.1386C178.1 37.1976 177.673 37.1837 177.264 37.1351C176.594 37.0587 176.035 36.7533 175.626 36.1979C175.57 36.125 175.508 36.0556 175.424 35.9515C175.31 36.0209 175.188 36.0799 175.088 36.1598C174.4 36.7047 173.72 37.2635 173.026 37.805C172.79 37.9889 172.529 38.1451 172.266 38.2874C171.998 38.4297 171.742 38.3985 171.495 38.1937C170.933 37.7182 170.787 37.3086 171.04 36.5936C171.287 35.896 171.589 35.2191 171.867 34.5353C171.96 34.3063 172.05 34.0737 172.137 33.855C171.981 33.7127 171.884 33.8238 171.811 33.8897C171.627 34.0633 171.453 34.2507 171.29 34.4416C169.444 36.6144 167.806 38.94 166.226 41.3072C165.546 42.3276 164.855 43.3411 164.165 44.3547C163.97 44.6358 163.797 44.9378 163.515 45.1426C162.846 44.6844 162.675 44.2262 162.925 43.5459C162.995 43.3516 163.095 43.1676 163.182 42.9767C164.199 40.7726 165.22 38.5686 166.237 36.3645C166.33 36.1598 166.414 35.9446 166.5 35.7432C166.351 35.6009 166.264 35.7155 166.181 35.7745C165.612 36.1702 165.053 36.5867 164.477 36.9685C163.158 37.8397 161.759 38.5478 160.246 39.0233C160.093 39.0719 159.937 39.1274 159.777 39.1517C158.732 39.3218 157.958 38.8463 157.639 37.8397C157.577 37.6453 157.525 37.4475 157.452 37.1872C157.202 37.3676 156.994 37.5065 156.796 37.6627C156.084 38.218 155.386 38.7942 154.661 39.3287C154.255 39.6272 153.797 39.8633 153.363 40.127C153.033 40.3284 152.745 40.252 152.485 39.9951C152.37 39.8806 152.256 39.7661 152.152 39.6411C151.766 39.1864 151.7 38.6935 151.971 38.159C152.054 37.9959 152.148 37.8327 152.249 37.68C153.37 35.9654 154.81 34.5839 156.605 33.5878C156.966 33.3865 157.358 33.2199 157.754 33.1227C158.611 32.9144 159.395 33.3865 159.649 34.2264C159.697 34.393 159.697 34.6013 159.642 34.7644C159.579 34.9553 159.444 35.1289 159.149 35.1393C159.149 34.8686 159.149 34.6048 159.149 34.334C158.878 34.2334 158.656 34.282 158.441 34.3687C158.25 34.4486 158.063 34.5388 157.879 34.6395C156.258 35.5384 154.897 36.7394 153.741 38.1833C153.7 38.2354 153.672 38.3013 153.606 38.4193C153.745 38.4124 153.856 38.4402 153.929 38.395C154.168 38.2597 154.408 38.1139 154.626 37.9473C155.55 37.2496 156.462 36.5416 157.382 35.837C157.566 35.6981 157.754 35.5627 157.931 35.4309C158.583 35.7571 158.788 36.1806 158.621 36.8296C158.538 37.142 158.437 37.4509 158.365 37.7633C158.33 37.916 158.337 38.0792 158.323 38.2562C158.712 38.3638 159.066 38.3534 159.43 38.2527C161.707 37.6175 163.8 36.6144 165.654 35.1358C166.376 34.5596 167.084 33.9626 167.781 33.3518C168.094 33.0775 168.354 32.7478 168.635 32.4424C168.788 32.2758 168.937 32.1057 169.072 31.9564C169.163 31.9842 169.215 31.9842 169.249 32.0085C169.86 32.432 169.899 32.5569 169.558 33.199C169.135 33.9973 168.694 34.7818 168.267 35.5766C167.597 36.8192 166.927 38.0584 166.261 39.3044C166.178 39.4606 166.112 39.6272 166.039 39.7904C166.195 39.8667 166.226 39.7522 166.271 39.6897C166.861 38.8602 167.438 38.0202 168.035 37.1976C168.687 36.3021 169.347 35.4066 170.037 34.5353C170.627 33.7891 171.315 33.1331 172.061 32.543C172.186 32.4458 172.321 32.3625 172.484 32.2549C172.658 32.3903 172.828 32.5048 172.981 32.6367C173.293 32.9075 173.387 33.2476 173.245 33.6398C173.102 34.0321 172.956 34.4208 172.804 34.8061C172.54 35.4725 172.262 36.132 171.998 36.7984C171.953 36.9164 171.946 37.0518 171.912 37.2427C172.616 36.972 173.116 36.5277 173.637 36.1146C174.157 35.6981 174.643 35.2399 175.216 34.8581C175.511 35.115 175.712 35.3857 175.837 35.7155C175.976 36.0869 176.257 36.2188 176.65 36.2361C178.371 36.3194 180.068 36.1667 181.748 35.7849C182.13 35.6981 182.515 35.6113 182.904 35.5627C183.498 35.4899 183.862 35.1636 184.084 34.6256C184.601 33.3622 185.133 32.1057 185.66 30.8492C186.441 28.9957 187.222 27.1422 188.017 25.2922C188.236 24.782 188.496 24.2926 188.746 23.7962C188.787 23.7095 188.853 23.6435 188.909 23.5706ZM184.876 39.1482C186.077 38.3256 187.212 37.4718 188.114 36.3437C188.68 35.6322 189.093 34.8373 189.357 33.9661C189.388 33.8585 189.436 33.7474 189.305 33.6294C188.846 33.6503 188.426 33.8273 188.069 34.1258C187.642 34.4763 187.219 34.8373 186.837 35.2365C185.907 36.2014 185.143 37.3052 184.352 38.3846C184.327 38.4193 184.324 38.4714 184.306 38.5304C184.483 38.7213 184.667 38.9226 184.876 39.1482Z" fill="white"/>
<path d="M243 34.7047C242.788 34.6908 242.646 34.7255 242.583 34.67C242.066 34.2049 241.431 34.125 240.782 34.0521C238.936 33.8543 237.089 33.8578 235.246 34.0695C233.247 34.2986 231.251 34.552 229.252 34.7637C228.589 34.8331 227.912 34.7984 227.242 34.8053C226.829 34.8088 226.416 34.8053 225.975 34.8053C225.913 34.965 225.857 35.1108 225.805 35.26C225.479 36.2076 224.764 36.7629 223.892 37.1552C223.604 37.2836 223.288 37.3009 223.032 37.0996C222.737 36.8636 222.452 36.9053 222.122 36.999C221.456 37.1899 220.779 37.3461 220.109 37.5196C219.443 37.6932 218.78 37.6446 218.12 37.4745C217.475 37.3079 217.006 36.9296 216.728 36.3256C216.565 35.9681 216.423 35.6002 216.267 35.2427C216.222 35.142 216.159 35.0483 216.097 34.9407C215.791 35.0205 215.576 35.201 215.385 35.3954C214.878 35.9022 214.389 36.4263 213.903 36.9504C213.48 37.4085 213.07 37.8806 212.65 38.3388C212.542 38.4533 212.407 38.5401 212.258 38.665C211.755 38.1548 211.602 37.5925 211.841 36.9504C212.036 36.4297 212.268 35.9264 212.476 35.4127C212.525 35.2913 212.553 35.1628 212.601 34.9997C212.352 34.9615 212.199 35.0795 212.039 35.142C210.967 35.5689 209.901 36.0167 208.818 36.4228C208.346 36.5998 207.843 36.7005 207.35 36.8289C207.218 36.8636 207.079 36.8844 206.94 36.8948C206.09 36.9643 205.573 36.6727 205.212 35.9091C205.094 35.6592 205.021 35.3885 204.931 35.1281C204.872 34.9546 204.823 34.7776 204.757 34.552C204.618 34.6387 204.497 34.6908 204.407 34.7776C203.875 35.2913 203.355 35.8188 202.82 36.3325C202.268 36.8636 201.675 37.3426 200.967 37.6584C200.863 37.7036 200.755 37.7383 200.627 37.7834C200.29 37.5335 200.106 37.1933 199.978 36.822C199.884 36.5477 199.912 36.2666 200.057 36.0167C200.255 35.6765 200.47 35.3503 200.689 35.024C200.814 34.8366 200.96 34.663 201.106 34.4652C200.772 34.2153 200.418 34.1944 200.085 34.1563C198.221 33.9376 196.666 34.5311 195.472 35.9959C194.518 37.1656 193.706 38.4255 193.05 39.7861C192.928 40.0361 192.789 40.2755 192.65 40.515C192.63 40.5498 192.574 40.5636 192.512 40.5983C192.223 40.3797 192.022 40.0742 191.793 39.8278C192.001 39.0954 195.15 31.3448 195.427 30.8762C195.67 30.9422 195.816 31.1192 195.91 31.3379C195.993 31.5322 196.01 31.7405 195.948 31.9487C195.819 32.3687 195.688 32.7887 195.569 33.2087C195.448 33.646 195.285 34.0764 195.215 34.604C195.351 34.5381 195.434 34.5138 195.497 34.4617C196.507 33.5731 197.708 33.3545 198.995 33.4725C199.502 33.5176 200.002 33.6322 200.505 33.6738C200.963 33.712 201.428 33.7293 201.887 33.6946C202.282 33.6634 202.647 33.4829 202.952 33.2295C203.289 32.9484 203.688 32.8408 204.101 32.7887C204.795 32.7019 205.271 33.0837 205.347 33.7779C205.375 34.0278 205.351 34.2847 205.347 34.5381C205.344 34.7915 205.323 35.0483 205.337 35.3017C205.365 35.7182 205.507 35.8813 205.902 35.975C206.357 36.0861 206.826 36.1104 207.277 35.9924C208.037 35.7946 208.797 35.5932 209.537 35.3329C210.696 34.9268 211.789 34.3749 212.876 33.8057C213.195 33.6391 213.438 33.41 213.629 33.108C213.9 32.6811 214.174 32.2542 214.434 31.8446C214.677 31.8238 214.844 31.9175 214.941 32.0772C215.059 32.2715 215.156 32.4867 215.201 32.7089C215.225 32.8199 215.132 32.9692 215.066 33.0872C214.691 33.7502 214.306 34.4096 213.931 35.0726C213.841 35.2288 213.764 35.3919 213.688 35.5412C213.809 35.687 213.882 35.5794 213.934 35.5308C214.24 35.2496 214.535 34.9511 214.84 34.67C215.146 34.3888 215.475 34.132 215.899 34.007C216.18 34.1216 216.301 34.3749 216.409 34.6283C216.482 34.7984 216.531 34.9789 216.569 35.1594C216.735 35.9299 217.239 36.336 217.981 36.5096C218.717 36.6796 219.45 36.6831 220.182 36.5061C220.675 36.3846 221.157 36.2215 221.647 36.0861C222.029 35.982 222.278 35.746 222.452 35.3885C222.848 34.5693 223.5 33.9897 224.285 33.5523C224.427 33.4725 224.573 33.3996 224.722 33.3475C225.027 33.2434 225.316 33.2885 225.572 33.4898C225.628 33.5315 225.69 33.5731 225.729 33.6252C226.11 34.1389 226.628 34.1944 227.214 34.132C228.8 33.9654 230.387 33.7918 231.959 33.5176C233.826 33.1948 235.704 32.8998 237.596 32.8026C238.703 32.7471 239.814 32.7922 240.924 32.7991C241.108 32.7991 241.292 32.8338 241.476 32.8651C241.993 32.9484 242.372 33.2226 242.58 33.7085C242.708 34.0001 242.83 34.2986 243 34.7047ZM223.184 36.3152C224.097 36.1868 224.607 35.7043 225.069 35.1594C225.246 34.9511 225.402 34.7186 225.274 34.4131C224.854 34.5311 224.746 34.5867 224.371 34.8956C223.927 35.26 223.552 35.6835 223.184 36.3152ZM203.209 34.6491C202.362 34.9789 201.557 35.6939 201.307 36.3291C202.064 35.982 202.872 35.267 203.209 34.6491Z" fill="white"/>
</g>
<defs>
<filter id="filter0_d_4302_3656" x="24" y="26.42" width="194.285" height="24.72" filterUnits="userSpaceOnUse" color-interpolation-filters="sRGB">
<feFlood flood-opacity="0" result="BackgroundImageFix"/>
<feColorMatrix in="SourceAlpha" type="matrix" values="0 0 0 0 0 0 0 0 0 0 0 0 0 0 0 0 0 0 127 0" result="hardAlpha"/>
<feOffset dy="4"/>
<feGaussianBlur stdDeviation="2"/>
<feComposite in2="hardAlpha" operator="out"/>
<feColorMatrix type="matrix" values="0 0 0 0 0 0 0 0 0 0 0 0 0 0 0 0 0 0 0.25 0"/>
<feBlend mode="normal" in2="BackgroundImageFix" result="effect1_dropShadow_4302_3656"/>
<feBlend mode="normal" in="SourceGraphic" in2="effect1_dropShadow_4302_3656" result="shape"/>
</filter>
</defs>
</svg>
