<svg width="1335" height="396" viewBox="0 0 1335 396" fill="none" xmlns="http://www.w3.org/2000/svg">
<path d="M518.668 156.143C519.743 155.337 520.728 154.62 521.713 153.904C526.28 150.68 530.399 147.098 533.892 142.621C535.325 140.74 536.937 139.038 538.638 137.337C542.847 133.038 546.698 128.561 550.101 123.546C551.713 121.128 553.145 120.68 555.743 121.576C558.429 122.561 560.578 124.262 561.653 127.038C562.459 129.098 562.19 130.531 560.489 131.874C552.25 138.68 544.28 145.844 534.429 150.412C530.937 152.023 527.623 154.173 524.31 156.143C523.325 156.68 522.429 157.307 521.444 157.755C520.19 158.382 519.384 157.934 518.668 156.143Z" fill="white"/>
<path d="M477.11 149.875C471.379 149.786 467.349 143.517 469.857 138.681C471.469 135.547 475.051 134.204 478.364 135.368C480.782 136.263 482.752 137.786 484.006 140.025C485.439 142.622 484.991 144.771 482.394 146.383C481.498 146.92 481.051 147.637 480.424 148.353C479.26 149.607 478.633 149.875 477.11 149.875Z" fill="white"/>
<path d="M237.204 222.591C234.518 222.502 232.189 223.128 229.95 223.487C207.921 227.158 185.891 231.098 164.04 235.666C159.115 236.651 154.279 237.904 149.354 238.71C147.115 239.069 145.593 240.233 144.16 241.755C135.025 251.427 125.802 261.098 116.667 270.86C103.772 284.472 90.8763 298.083 77.354 311.068C76.6375 311.785 75.9211 312.412 75.2047 313.039C74.4883 313.755 73.5928 314.203 72.6077 313.845C71.354 313.397 70.548 312.412 70.3689 311.068C70.2793 310.8 70.2793 310.531 70.3689 310.262C70.9062 307.128 71.4435 303.994 71.9808 300.86C71.9808 300.591 72.339 300.501 72.5181 300.322C74.3987 299.964 75.2047 301.486 76.3689 302.382C76.548 302.292 76.6375 302.292 76.8166 302.203C76.9062 302.113 77.0853 302.113 77.1748 302.024C94.2793 283.039 111.384 263.964 128.488 244.979C128.667 244.8 128.757 244.531 128.846 244.263C128.936 244.173 128.846 243.994 128.846 243.636C127.503 243.904 126.16 243.994 124.906 244.352C87.4733 253.218 50.3093 263.158 13.5929 274.621C12.787 274.889 11.981 275.069 11.175 275.337C7.14521 276.86 2.21985 274.083 0.428812 269.695C-0.645811 267.098 0.339263 265.039 2.93627 264.054C4.10045 263.606 5.35417 263.248 6.51835 262.889C47.7123 250.8 89.3539 240.412 131.354 231.725C133.951 231.188 136.548 230.561 139.145 230.203C141.473 229.934 143.175 228.86 144.787 227.069C152.309 218.651 159.921 210.412 167.533 202.084C205.234 161.069 243.025 120.054 280.726 79.0393C301.503 56.3826 322.279 33.8155 343.055 11.1589C345.562 8.38277 347.98 5.51711 350.487 2.65145C352.547 0.323096 354.249 -0.0351173 357.114 1.21861C358.995 2.02458 360.517 3.0992 361.681 4.80069C363.204 7.03949 363.562 9.36785 361.95 11.7858C358.816 16.3529 355.861 21.0992 352.726 25.6663C338.398 46.0842 325.323 67.2184 313.144 88.89C291.92 126.681 274.368 166.084 259.95 206.919C259.503 208.084 259.234 209.248 258.786 210.77C259.771 210.86 260.577 211.039 261.294 210.949C267.831 210.322 274.279 209.606 280.816 208.979C285.92 208.442 291.025 207.905 296.129 207.546C297.92 207.457 299.264 206.83 300.517 205.576C304.279 201.815 308.308 198.412 312.876 195.636C315.562 194.024 318.517 192.591 321.383 191.248C324.338 189.905 327.562 189.636 330.786 189.905C334.726 190.173 338.04 191.785 340.458 194.919C342.07 196.979 343.502 199.218 345.204 201.546C345.831 200.382 346.547 199.397 347.084 198.323C358.637 175.666 369.831 152.83 380.577 129.815C383.263 123.994 386.129 118.353 389.084 112.621C389.801 111.188 390.965 109.845 392.04 108.591C392.935 107.517 394.189 107.427 395.532 107.785C398.577 108.502 400.547 110.92 400.726 114.054C400.905 116.651 400.01 118.979 399.114 121.308C395.174 132.054 390.607 142.442 385.95 152.83C370.637 187.128 353.264 220.352 334.816 253.039C332.935 256.442 331.055 259.845 329.264 263.337C327.741 266.292 326.667 269.427 325.95 272.74C325.323 275.785 325.592 278.83 326.577 281.785C327.114 283.486 327.831 285.188 329.711 286.352C332.667 284.651 335.174 282.412 337.323 279.725C341.89 273.994 346.547 268.263 351.114 262.442C366.875 242.293 381.562 221.337 395.353 199.755C396.428 198.143 397.592 196.531 397.413 194.382C397.413 194.024 397.592 193.576 397.681 193.218C400.457 184.979 404.666 177.457 410.129 170.74C411.472 169.039 413.263 168.412 415.771 169.487C416.935 169.935 417.92 170.74 418.816 171.546C421.413 174.054 421.592 176.382 419.442 179.248C416.398 183.278 413.89 187.576 411.83 192.143C411.383 193.128 411.114 194.203 410.666 195.457C412.816 196.442 414.786 197.337 416.756 198.323C418.816 199.397 421.054 200.382 422.935 201.725C427.86 205.039 429.383 208.89 427.86 214.711C426.696 219.188 425.442 223.576 424.278 227.964C424.01 228.86 424.099 229.755 423.92 231.099C424.995 230.561 425.801 230.293 426.428 229.845C428.487 228.143 430.547 226.531 432.427 224.74C442.368 215.248 452.308 205.755 462.338 196.263C464.577 194.114 466.815 192.143 469.054 189.994C469.86 189.278 470.666 188.382 471.114 187.397C472.278 184.442 473.711 181.576 474.159 178.352C474.517 176.024 476.039 175.039 478.278 175.487C482.218 176.203 485.084 180.323 484.636 184.531C484.457 186.412 483.92 188.382 483.472 190.263C482.218 195.546 480.159 200.561 477.741 205.487C474.786 211.487 471.741 217.397 468.786 223.397C464.845 231.367 461.353 239.516 459.293 248.293C458.756 250.71 457.86 253.039 458.039 255.636C459.562 255.815 460.636 255.188 461.621 254.472C463.412 253.128 465.293 251.875 466.815 250.263C475.95 240.77 485.084 231.188 494.129 221.606C495.203 220.442 496.009 218.83 496.726 217.397C501.203 207.815 507.383 199.487 515.353 192.502C518.308 189.905 521.353 187.576 524.845 185.696C527.442 184.263 530.129 183.278 533.084 182.92C537.024 182.472 540.517 183.278 543.382 186.143C545.173 188.024 546.069 189.994 544.547 192.502C543.83 193.666 543.472 195.099 542.935 196.352C542.218 197.875 540.875 198.143 539.532 197.248C538.367 196.442 537.472 195.367 537.382 193.845C537.382 193.218 537.382 192.502 537.382 191.875C535.591 191.606 534.517 192.591 533.353 193.308C525.92 197.875 519.562 203.606 514.457 210.681C510.159 216.591 506.935 222.949 504.248 230.113C505.233 230.113 506.039 230.382 506.666 230.113C508.099 229.576 509.442 228.86 510.696 227.964C513.024 226.263 515.353 224.472 517.591 222.591C526.815 214.531 535.77 206.203 544.367 197.517C545.173 196.711 545.89 195.905 546.785 195.188C548.218 193.934 549.83 193.845 551.353 194.919C553.054 196.084 553.95 197.785 554.039 199.845C554.129 203.696 554.308 207.636 554.397 211.487C554.487 213.009 554.308 214.531 555.293 216.143C556.636 215.606 557.89 215.158 559.144 214.531C571.323 208.8 582.337 201.457 592.278 192.323C596.666 188.203 600.606 183.815 604.278 178.979C604.994 177.994 605.8 176.92 606.606 176.024C607.949 174.412 609.114 174.233 610.994 175.308C613.681 176.83 614.397 178.711 613.233 181.576C610.725 187.934 608.218 194.203 605.711 200.561C605.263 201.725 604.905 202.89 604.546 203.964C605.442 204.77 605.979 204.143 606.606 203.875C611.531 201.636 616.457 199.487 621.472 197.248C623.89 196.173 626.128 196.621 628.009 198.412C629.084 199.397 629.621 200.651 629.263 202.173C629.173 202.621 628.994 202.979 628.905 203.337C628.009 207.636 629.442 210.949 633.203 213.188C635.71 214.71 638.576 215.516 641.442 215.964C655.681 218.203 669.651 217.576 683.531 213.278C684.427 213.009 685.412 212.651 686.307 212.382C688.725 211.755 691.143 212.83 692.307 214.979C693.382 217.128 692.934 218.74 690.606 219.546C681.472 222.591 672.069 224.472 662.397 224.651C655.143 224.83 647.979 224.472 640.904 222.77C637.681 221.964 634.457 220.979 631.591 219.278C627.382 216.86 624.158 213.546 622.099 209.069C621.83 208.442 621.561 207.815 621.203 207.188C621.114 207.099 621.024 207.009 620.666 206.74C620.128 206.919 619.322 207.009 618.606 207.367C615.651 208.89 612.606 210.322 609.74 211.934C606.516 213.815 603.651 216.322 601.143 219.188C599.442 221.248 598.099 223.397 597.472 226.084C596.576 229.845 595.412 233.606 594.517 237.367C594.069 239.069 593.173 239.875 591.114 239.606C588.427 239.248 586.188 237.278 585.83 234.501C585.472 231.815 585.74 229.218 586.457 226.621C586.905 225.009 587.352 223.397 588.158 221.964C591.83 214.621 593.8 206.651 596.666 198.949C596.666 198.86 596.576 198.681 596.397 198.323C595.77 198.77 595.054 199.128 594.517 199.666C584.218 208.263 573.114 215.606 560.845 221.158C558.696 222.143 556.636 223.307 554.576 224.382C551.442 225.994 548.039 224.561 547.144 221.069C546.875 219.904 546.785 218.561 546.785 217.307C546.696 214.71 546.785 212.024 546.696 209.427C546.696 208.531 546.606 207.546 546.606 206.651C545.173 206.203 544.636 207.099 543.92 207.725C536.666 213.725 529.323 219.725 522.159 225.904C517.86 229.666 513.203 232.89 508.188 235.755C505.591 237.188 502.905 238.084 499.86 237.546C495.293 236.74 493.502 234.77 493.144 229.666C492.427 230.203 491.621 230.472 491.174 231.009C486.965 235.487 482.845 239.964 478.636 244.352C475.95 247.218 473.263 249.994 470.577 252.77C467.174 256.352 462.965 258.77 458.487 260.74C456.607 261.546 454.815 261.904 452.845 261.098C450.965 260.292 449.711 259.039 449.084 256.979C447.114 250.442 447.114 243.815 448.816 237.278C450.427 231.099 452.935 225.188 455.801 219.457C457.144 216.77 458.487 214.084 459.293 211.039C458.487 211.755 457.681 212.382 456.965 213.099C451.233 218.83 445.592 224.472 439.86 230.203C436.995 233.069 433.95 235.755 430.457 237.815C426.786 239.964 422.935 241.397 418.636 241.218C417.204 241.128 415.86 240.77 414.696 240.054C412.547 238.71 411.114 236.919 411.651 234.233C412.368 230.113 412.995 225.994 413.89 221.964C414.607 218.561 415.592 215.248 416.398 211.845C416.577 210.949 416.666 209.964 416.845 208.8C412.368 206.382 407.711 204.591 403.413 202.531C401.622 203.427 401.084 204.949 400.278 206.203C386.487 226.8 371.89 246.681 356.308 265.934C352.547 270.591 348.786 275.158 344.846 279.725C341.89 283.218 339.025 286.8 336.696 290.74C334.368 294.68 333.383 294.949 329.353 292.979C322.189 289.576 318.07 283.755 316.099 276.233C314.308 269.427 314.935 262.71 317.264 256.173C318.607 252.501 320.398 249.009 322.189 245.606C325.234 239.875 328.547 234.143 331.681 228.501C332.219 227.606 332.846 226.71 332.935 225.099C331.861 225.994 331.144 226.531 330.517 227.158C320.129 237.098 309.294 246.322 298.1 255.278C295.95 256.979 293.711 258.77 291.383 260.203C286.995 262.979 283.144 262.71 279.204 259.218C274.816 255.367 273.473 250.442 274.726 244.89C275.264 242.651 276.338 240.501 277.503 238.442C281.443 231.278 285.741 224.293 290.667 217.666C291.114 217.039 291.383 216.322 292.01 215.158C290.129 215.337 288.786 215.337 287.443 215.516C278.129 216.86 268.726 218.293 259.413 219.367C256.727 219.725 255.562 220.8 254.935 223.307C251.174 236.203 247.144 249.098 243.473 262.083C237.025 285.367 231.921 309.009 227.891 332.83C226.279 342.143 224.936 351.456 223.592 360.859C222.339 369.367 220.995 377.874 219.831 386.382C219.562 388.173 219.473 389.964 219.204 391.755C218.756 394.531 217.145 395.516 214.458 394.889C212.757 394.441 211.413 393.635 210.159 392.471C208.727 391.128 208.279 389.516 208.279 387.546C208.458 383.516 208.458 379.486 208.637 375.456C210.16 349.755 213.921 324.322 218.846 299.068C223.592 274.621 229.771 250.531 237.025 226.8C236.667 225.278 236.846 224.024 237.204 222.591ZM240.428 213.367C241.055 211.576 241.503 210.322 241.95 208.979C252.697 176.92 265.413 145.666 280.547 115.487C286.816 103.039 293.532 90.9497 300.07 78.6811C300.428 77.9646 301.323 77.2482 300.607 76.0841C253.861 125.785 207.383 175.218 160.816 224.74C160.637 224.919 160.727 225.278 160.637 225.636C160.995 225.725 161.354 225.904 161.712 225.904C187.682 221.069 213.831 216.77 240.428 213.367ZM338.398 201.188C333.473 199.576 331.681 199.487 327.652 201.457C324.517 202.979 321.562 204.86 318.786 206.83C314.577 209.785 310.995 213.457 307.592 217.397C298.637 227.785 291.831 239.516 285.025 251.337C284.398 252.412 284.04 253.666 283.771 254.83C283.503 255.725 284.398 256.621 285.204 256.263C286.726 255.546 288.249 254.83 289.503 253.845C306.876 240.322 323.085 225.636 338.04 209.517C338.756 208.711 339.473 207.815 340.099 207.099C339.473 205.039 338.935 203.158 338.398 201.188Z" fill="white"/>
<path d="M528.485 326.387C530.201 325.987 531.174 325.834 532.089 325.529C540.06 322.936 548.011 320.285 555.982 317.73C589.391 307.032 623.276 298.07 657.695 291.281C672.645 288.326 687.69 285.79 702.716 283.33C714.253 281.442 725.828 279.821 737.403 278.296C745.202 277.266 753.058 276.541 760.895 275.702C769.61 274.787 778.324 273.872 787.058 273.013C793.884 272.346 800.73 271.717 807.557 271.183C817.053 270.439 826.568 269.791 836.084 269.143C840.908 268.818 845.732 268.513 850.538 268.304C868.31 267.484 886.082 266.53 903.873 266.358C913.408 266.263 922.942 265.977 932.457 266.091C945.92 266.263 959.382 266.721 972.845 267.121C978.947 267.312 985.03 267.655 991.132 267.979C1014.89 269.238 1038.46 272.022 1061.82 276.598C1074.67 279.116 1087.37 282.224 1099.52 287.296C1101.16 287.982 1102.82 288.65 1104.38 289.489C1110.39 292.769 1114.2 297.784 1116.09 304.324C1117.1 307.852 1116.55 311.113 1114.47 314.126C1113.1 316.09 1111.61 317.959 1110.01 319.56C1108.71 319.332 1108.42 318.416 1107.93 317.73C1106.92 316.319 1107.01 314.889 1107.97 313.477C1108.9 312.104 1109.89 310.789 1110.73 309.378C1111.49 308.081 1112.26 306.708 1112.71 305.278C1113.42 303.142 1112.81 301.254 1110.94 299.9C1110.03 299.233 1109.03 298.642 1108.04 298.07C1100.51 293.665 1092.33 290.976 1083.96 288.726C1074.48 286.19 1064.81 284.722 1055.13 283.387C1046.81 282.243 1038.52 281.061 1030.2 280.012C1022 278.982 1013.8 277.952 1005.59 277.247C993.172 276.179 980.758 275.283 968.326 274.539C960.851 274.081 953.337 274.062 945.843 273.852C928.548 273.357 911.272 273.852 893.995 274.234C876.09 274.634 858.165 275.149 840.26 275.969C826.549 276.598 812.858 277.59 799.185 278.715C784.884 279.897 770.582 281.232 756.319 282.872C739.29 284.836 722.281 287.105 705.291 289.394C672.149 293.875 639.37 300.339 607.029 308.844C564.868 319.942 523.317 332.947 482.91 349.441C480.565 350.395 478.162 351.234 475.779 352.111C475.435 352.244 475.054 352.263 474.558 352.359C473.319 351.424 472.804 349.994 471.984 348.45C472.995 347.801 473.891 347.134 474.882 346.619C481.785 343.091 488.669 339.564 495.629 336.131C529.82 319.312 564.067 302.57 598.238 285.694C622.284 273.833 646.254 261.82 670.223 249.845C718.2 225.895 765.758 201.143 812.495 174.847C842.529 157.952 872.105 140.352 900.708 121.131C916.325 110.643 931.752 99.8688 946.511 88.1987C953.795 82.4209 960.698 76.2236 966.972 69.3588C968.688 67.4901 970.252 65.4687 971.72 63.4093C973.188 61.3308 974.18 59.0044 974.637 56.2967C972.044 54.5423 969.222 53.5698 966.209 53.0168C958.81 51.6629 951.316 51.2816 943.822 51.2625C931.351 51.2244 918.918 51.7011 906.505 52.8071C896.246 53.7224 885.987 54.4851 875.747 55.4386C863.848 56.5255 851.968 57.765 840.088 58.9091C830.592 59.8053 821.114 60.6825 811.618 61.4834C800.349 62.4368 789.079 63.4856 777.79 64.153C764.976 64.8967 752.143 65.4878 739.328 65.6976C730.442 65.8501 721.556 64.973 712.842 62.9326C710.992 62.494 709.181 61.8838 707.465 61.0829C704.223 59.5765 701.935 57.0785 700.504 53.8177C700.371 53.5126 700.447 53.1312 700.447 52.8261C701.324 52.3113 702.03 52.8071 702.697 53.0168C712.136 55.9916 721.842 56.8878 731.663 57.0022C745.144 57.1548 758.607 56.945 772.051 55.9534C782.31 55.1907 792.569 54.1991 802.809 53.3029C809.635 52.7117 816.481 52.1015 823.307 51.4723C833.185 50.576 843.044 49.6416 852.921 48.7454C859.748 48.1352 866.594 47.5632 873.439 46.9911C881.544 46.3046 889.648 45.5609 897.752 44.9507C912.073 43.8638 926.412 42.9485 940.79 43.2917C948.551 43.4824 956.236 44.4931 963.902 45.6563C971.872 46.8767 976.296 52.0634 978.966 59.157C979.576 60.7588 979.538 62.4368 978.832 64.0004C978.165 65.5069 977.44 66.9942 976.544 68.3863C973.722 72.8293 970.099 76.5668 966.247 80.0754C957.132 88.3894 947.464 96.0551 937.472 103.282C916.134 118.709 894.053 132.991 871.628 146.778C836.865 168.154 801.188 187.89 765.205 207.112C723.959 229.136 682.275 250.303 640.323 270.935C604.531 288.555 568.682 306.041 532.871 323.603C531.574 324.213 530.106 324.671 528.485 326.387Z" fill="white"/>
<path d="M1037.83 130C1040.77 132.04 1041.28 133.184 1040.46 135.969C1040.18 136.941 1039.76 137.875 1039.38 138.81C1032.28 156.22 1025.17 173.629 1018.08 191.02C1017.53 192.393 1017.01 193.804 1016.9 195.482C1017.41 195.063 1017.98 194.681 1018.44 194.205C1022.16 190.162 1026.26 186.577 1030.61 183.24C1031.81 182.325 1033.12 181.486 1034.52 180.914C1037.47 179.693 1040.1 180.59 1041.76 183.297C1043.33 185.872 1044.07 188.732 1043.38 191.707C1042.91 193.785 1042.2 195.883 1041.23 197.77C1035.24 209.193 1025.88 216.82 1014.11 221.759C1011.9 222.693 1010.2 222.35 1008.72 220.52C1007.42 218.956 1006.12 217.392 1004.71 215.924C1003.01 214.151 1002.77 212.129 1003.45 209.917C1004.02 208.106 1004.69 206.313 1005.26 204.502C1005.65 203.32 1005.99 202.099 1006.41 200.65C1005.55 200.65 1004.94 200.574 1004.37 200.669C996.473 201.966 988.598 203.358 980.684 204.54C978.453 204.864 976.108 204.788 973.858 204.521C970.177 204.101 967.107 202.423 964.857 199.372C964.552 198.972 964.209 198.59 963.751 198.018C963.122 198.4 962.454 198.724 961.901 199.163C958.126 202.156 954.388 205.226 950.575 208.201C949.278 209.212 947.848 210.07 946.399 210.852C944.93 211.634 943.519 211.462 942.165 210.337C939.076 207.724 938.275 205.474 939.667 201.546C941.021 197.713 942.68 193.995 944.206 190.238C944.72 188.98 945.216 187.702 945.693 186.501C944.835 185.719 944.301 186.329 943.901 186.692C942.89 187.645 941.936 188.675 941.04 189.723C930.896 201.661 921.895 214.437 913.219 227.442C909.481 233.048 905.687 238.616 901.892 244.184C900.824 245.729 899.871 247.387 898.326 248.513C894.646 245.995 893.711 243.478 895.084 239.741C895.466 238.673 896.019 237.662 896.495 236.614C902.083 224.505 907.689 212.396 913.276 200.288C913.791 199.163 914.249 197.98 914.725 196.874C913.905 196.092 913.429 196.722 912.971 197.046C909.844 199.22 906.774 201.508 903.608 203.606C896.362 208.392 888.677 212.282 880.363 214.894C879.524 215.161 878.666 215.466 877.789 215.6C872.049 216.534 867.797 213.922 866.043 208.392C865.699 207.324 865.413 206.237 865.013 204.807C863.64 205.798 862.496 206.561 861.409 207.419C857.5 210.47 853.667 213.636 849.682 216.572C847.451 218.212 844.934 219.509 842.55 220.958C840.738 222.064 839.156 221.645 837.726 220.234C837.096 219.604 836.467 218.975 835.895 218.289C833.778 215.791 833.416 213.083 834.903 210.146C835.361 209.25 835.876 208.354 836.429 207.515C842.588 198.095 850.502 190.505 860.36 185.033C862.343 183.927 864.498 183.011 866.672 182.477C871.382 181.333 875.691 183.927 877.083 188.541C877.35 189.456 877.35 190.601 877.045 191.497C876.702 192.546 875.958 193.499 874.338 193.556C874.338 192.069 874.338 190.62 874.338 189.132C872.85 188.579 871.63 188.846 870.448 189.323C869.399 189.762 868.369 190.257 867.358 190.81C858.453 195.749 850.978 202.347 844.628 210.28C844.4 210.566 844.247 210.928 843.885 211.576C844.647 211.538 845.258 211.691 845.658 211.443C846.974 210.699 848.29 209.898 849.491 208.983C854.563 205.15 859.578 201.26 864.632 197.389C865.642 196.626 866.672 195.883 867.644 195.158C871.229 196.951 872.354 199.277 871.439 202.843C870.981 204.559 870.428 206.256 870.028 207.972C869.837 208.811 869.875 209.708 869.799 210.68C871.935 211.271 873.88 211.214 875.882 210.661C888.391 207.171 899.89 201.661 910.073 193.537C914.039 190.372 917.929 187.092 921.762 183.736C923.478 182.229 924.908 180.418 926.453 178.74C927.292 177.825 928.112 176.89 928.855 176.07C929.351 176.223 929.637 176.223 929.828 176.356C933.184 178.683 933.394 179.369 931.525 182.897C929.199 187.283 926.777 191.592 924.431 195.959C920.751 202.786 917.071 209.593 913.41 216.439C912.952 217.297 912.59 218.212 912.189 219.108C913.047 219.528 913.219 218.899 913.467 218.556C916.708 213.998 919.874 209.383 923.154 204.864C926.739 199.944 930.362 195.025 934.156 190.238C937.398 186.139 941.174 182.535 945.274 179.293C945.96 178.759 946.704 178.301 947.6 177.71C948.553 178.454 949.488 179.083 950.327 179.808C952.043 181.295 952.558 183.164 951.776 185.319C950.994 187.473 950.193 189.609 949.354 191.726C947.905 195.387 946.379 199.01 944.93 202.671C944.682 203.32 944.644 204.063 944.453 205.112C948.324 203.625 951.07 201.184 953.931 198.915C956.791 196.626 959.461 194.109 962.607 192.012C964.228 193.423 965.334 194.91 966.02 196.722C966.783 198.762 968.328 199.487 970.482 199.582C979.941 200.04 989.265 199.201 998.495 197.103C1000.59 196.626 1002.71 196.15 1004.84 195.883C1008.11 195.482 1010.11 193.69 1011.33 190.734C1014.17 183.793 1017.09 176.89 1019.98 169.987C1024.28 159.805 1028.57 149.622 1032.93 139.458C1034.13 136.655 1035.56 133.966 1036.94 131.239C1037.17 130.763 1037.53 130.4 1037.83 130ZM1015.68 215.581C1022.27 211.061 1028.51 206.371 1033.47 200.173C1036.57 196.264 1038.84 191.897 1040.29 187.111C1040.46 186.52 1040.73 185.91 1040.01 185.261C1037.49 185.376 1035.18 186.348 1033.22 187.988C1030.87 189.914 1028.55 191.897 1026.45 194.09C1021.34 199.391 1017.14 205.455 1012.8 211.386C1012.66 211.576 1012.64 211.862 1012.55 212.187C1013.52 213.235 1014.53 214.341 1015.68 215.581Z" fill="white"/>
<path d="M1335 191.169C1333.84 191.093 1333.06 191.283 1332.71 190.978C1329.87 188.423 1326.38 187.984 1322.82 187.584C1312.67 186.497 1302.53 186.516 1292.4 187.679C1281.42 188.938 1270.45 190.33 1259.47 191.493C1255.83 191.874 1252.11 191.684 1248.43 191.722C1246.16 191.741 1243.89 191.722 1241.47 191.722C1241.12 192.599 1240.82 193.4 1240.53 194.22C1238.74 199.426 1234.81 202.477 1230.03 204.631C1228.44 205.337 1226.71 205.432 1225.3 204.326C1223.68 203.03 1222.11 203.258 1220.3 203.773C1216.64 204.822 1212.92 205.68 1209.24 206.634C1205.58 207.587 1201.94 207.32 1198.31 206.386C1194.77 205.47 1192.19 203.392 1190.67 200.074C1189.77 198.11 1188.99 196.089 1188.13 194.125C1187.88 193.572 1187.54 193.057 1187.2 192.466C1185.52 192.904 1184.34 193.896 1183.29 194.964C1180.5 197.748 1177.82 200.627 1175.15 203.506C1172.82 206.023 1170.57 208.617 1168.26 211.134C1167.67 211.763 1166.93 212.24 1166.11 212.926C1163.34 210.123 1162.5 207.034 1163.82 203.506C1164.89 200.646 1166.16 197.881 1167.31 195.059C1167.58 194.391 1167.73 193.686 1168 192.79C1166.62 192.58 1165.78 193.228 1164.91 193.572C1159.01 195.917 1153.16 198.377 1147.21 200.608C1144.62 201.58 1141.85 202.133 1139.14 202.839C1138.42 203.03 1137.66 203.144 1136.89 203.201C1132.22 203.583 1129.38 201.981 1127.4 197.786C1126.75 196.413 1126.35 194.925 1125.85 193.495C1125.53 192.542 1125.26 191.569 1124.9 190.33C1124.14 190.807 1123.47 191.093 1122.97 191.569C1120.06 194.391 1117.2 197.29 1114.26 200.112C1111.23 203.03 1107.97 205.661 1104.08 207.396C1103.5 207.644 1102.91 207.835 1102.21 208.083C1100.36 206.71 1099.35 204.841 1098.64 202.801C1098.13 201.294 1098.28 199.75 1099.08 198.377C1100.17 196.508 1101.35 194.716 1102.55 192.923C1103.24 191.893 1104.04 190.94 1104.84 189.853C1103.01 188.48 1101.06 188.366 1099.23 188.156C1088.99 186.955 1080.45 190.215 1073.89 198.262C1068.65 204.689 1064.19 211.611 1060.58 219.086C1059.91 220.459 1059.15 221.774 1058.39 223.09C1058.27 223.281 1057.97 223.357 1057.63 223.548C1056.04 222.346 1054.94 220.668 1053.68 219.314C1054.82 215.291 1072.12 172.71 1073.64 170.136C1074.98 170.498 1075.78 171.471 1076.29 172.672C1076.75 173.74 1076.85 174.884 1076.5 176.028C1075.8 178.336 1075.07 180.643 1074.43 182.95C1073.76 185.353 1072.86 187.717 1072.48 190.616C1073.22 190.254 1073.68 190.12 1074.02 189.834C1079.57 184.952 1086.17 183.751 1093.25 184.399C1096.03 184.647 1098.78 185.277 1101.54 185.505C1104.06 185.715 1106.61 185.811 1109.13 185.62C1111.3 185.448 1113.31 184.457 1114.98 183.065C1116.83 181.52 1119.03 180.929 1121.3 180.643C1125.11 180.166 1127.72 182.264 1128.14 186.077C1128.29 187.45 1128.16 188.862 1128.14 190.254C1128.12 191.646 1128.01 193.057 1128.08 194.449C1128.24 196.737 1129.02 197.633 1131.19 198.148C1133.69 198.758 1136.27 198.892 1138.74 198.243C1142.92 197.156 1147.1 196.05 1151.16 194.62C1157.53 192.389 1163.53 189.357 1169.5 186.23C1171.26 185.315 1172.59 184.056 1173.64 182.397C1175.13 180.052 1176.63 177.706 1178.06 175.456C1179.4 175.342 1180.31 175.857 1180.85 176.734C1181.5 177.802 1182.03 178.984 1182.28 180.204C1182.41 180.814 1181.9 181.634 1181.53 182.283C1179.47 185.925 1177.36 189.548 1175.3 193.19C1174.8 194.048 1174.38 194.944 1173.96 195.764C1174.63 196.565 1175.03 195.974 1175.32 195.707C1177 194.163 1178.62 192.523 1180.29 190.978C1181.97 189.434 1183.78 188.023 1186.11 187.336C1187.66 187.965 1188.32 189.357 1188.91 190.749C1189.31 191.684 1189.58 192.675 1189.79 193.667C1190.71 197.9 1193.47 200.131 1197.55 201.085C1201.59 202.019 1205.62 202.038 1209.64 201.066C1212.35 200.398 1215 199.502 1217.69 198.758C1219.79 198.186 1221.16 196.889 1222.11 194.925C1224.29 190.425 1227.87 187.241 1232.18 184.838C1232.96 184.399 1233.76 183.999 1234.58 183.713C1236.26 183.141 1237.84 183.389 1239.26 184.495C1239.56 184.724 1239.9 184.952 1240.11 185.238C1242.21 188.061 1245.05 188.366 1248.28 188.022C1256.99 187.107 1265.7 186.154 1274.34 184.647C1284.6 182.874 1294.92 181.253 1305.31 180.719C1311.39 180.414 1317.49 180.662 1323.6 180.7C1324.61 180.7 1325.62 180.891 1326.63 181.062C1329.47 181.52 1331.55 183.026 1332.69 185.696C1333.4 187.298 1334.07 188.938 1335 191.169ZM1226.14 200.017C1231.15 199.311 1233.95 196.661 1236.49 193.667C1237.46 192.523 1238.32 191.245 1237.62 189.567C1235.31 190.215 1234.72 190.521 1232.66 192.218C1230.22 194.22 1228.16 196.546 1226.14 200.017ZM1116.4 190.864C1111.74 192.675 1107.32 196.603 1105.95 200.093C1110.1 198.186 1114.55 194.258 1116.4 190.864Z" fill="white"/>
</svg>
